# xmcd
#
# Track frame offsets: 
#        150
#        17550
#        32152
#        57447
#        73182
#        87956
#        109255
#        126999
#        149304
#        161754
#        183376
#        203948
#        224652
#        242098
#        261156
#        277161
#        296716
#        313530
#        329767
#
# Disc length: 4635 seconds
#
# Revision: 0
# Processed by: cddbd v1.5.1PL2 Copyright (c) Steve Scherf et al.
# Submitted via: ExactAudioCopy v0.95b2
#
DISCID=3b121913
DTITLE=Various Artist - R'n'B Hits  Vol2
DYEAR=1900
DGENRE=R&B
TTITLE0=Chris Brown/Run It!
TTITLE1=Akon/Bananza (Belly Dancer)
TTITLE2=Ray J/One Wish
TTITLE3=Pussycat Dolls/Stickwitu
TTITLE4=J-Five/Moving On Up
TTITLE5=YoungBloodZ/Chop Chop
TTITLE6=Toni Braxton/Please
TTITLE7=Macy Gray/Do Something
TTITLE8=411/My Friend
TTITLE9=Game/Dreams
TTITLE10=Kelly Rowlland/Burn It Up
TTITLE11=Alicia Keys/Unbreakable
TTITLE12=Nivea/Complicated
TTITLE13=Cee-Lo/All Day Love Affair
TTITLE14=J-Kwon/Tipsy
TTITLE15=Fugees/No woman, No Cry
TTITLE16=Eamon/Fuck It (I Don't Want You Back)
TTITLE17=TLC/No Scrubs
TTITLE18=Justin Timberlake/Why, When, How
EXTD=
EXTT0=
EXTT1=
EXTT2=
EXTT3=
EXTT4=
EXTT5=
EXTT6=
EXTT7=
EXTT8=
EXTT9=
EXTT10=
EXTT11=
EXTT12=
EXTT13=
EXTT14=
EXTT15=
EXTT16=
EXTT17=
EXTT18=
PLAYORDER=
